[Header]
FileType HTR
DataType HTRS
FileVersion 1
NumSegments 64
NumFrames 4
DataFrameRate 30
EulerRotationOrder ZYX
CalibrationUnits mm
RotationUnits Degrees
GlobalAxisofGravity Y
BoneLengthAxis Y
ScaleFactor 1.0
[SegmentNames&Hierarchy]
Hips	GLOBAL
Spine	Hips
Spine1	Spine
Spine2	Spine1
Neck	Spine2
Head	Neck
LeftEye	Head
RightEye	Head
LeftShoulder	Spine2
LeftArm	LeftShoulder
LeftForeArm	LeftArm
LeftHand	LeftForeArm
LeftHandThumb1	LeftHand
LeftHandThumb2	LeftHandThumb1
LeftHandThumb3	LeftHandThumb2
LeftHandThumb4	LeftHandThumb3
LeftHandIndex1	LeftHand
LeftHandIndex2	LeftHandIndex1
LeftHandIndex3	LeftHandIndex2
LeftHandIndex4	LeftHandIndex3
LeftHandMiddle1	LeftHand
LeftHandMiddle2	LeftHandMiddle1
LeftHandMiddle3	LeftHandMiddle2
LeftHandMiddle4	LeftHandMiddle3
LeftHandRing1	LeftHand
LeftHandRing2	LeftHandRing1
LeftHandRing3	LeftHandRing2
LeftHandRing4	LeftHandRing3
LeftHandPinky1	LeftHand
LeftHandPinky2	LeftHandPinky1
LeftHandPinky3	LeftHandPinky2
LeftHandPinky4	LeftHandPinky3
RightShoulder	Spine2
RightArm	RightShoulder
RightForeArm	RightArm
RightHand	RightForeArm
RightHandPinky1	RightHand
RightHandPinky2	RightHandPinky1
RightHandPinky3	RightHandPinky2
RightHandPinky4	RightHandPinky3
RightHandRing1	RightHand
RightHandRing2	RightHandRing1
RightHandRing3	RightHandRing2
RightHandRing4	RightHandRing3
RightHandMiddle1	RightHand
RightHandMiddle2	RightHandMiddle1
RightHandMiddle3	RightHandMiddle2
RightHandMiddle4	RightHandMiddle3
RightHandIndex1	RightHand
RightHandIndex2	RightHandIndex1
RightHandIndex3	RightHandIndex2
RightHandIndex4	RightHandIndex3
RightHandThumb1	RightHand
RightHandThumb2	RightHandThumb1
RightHandThumb3	RightHandThumb2
RightHandThumb4	RightHandThumb3
LeftUpLeg	Hips
LeftLeg	LeftUpLeg
LeftFoot	LeftLeg
LeftToeBase	LeftFoot
RightUpLeg	Hips
RightLeg	RightUpLeg
RightFoot	RightLeg
RightToeBase	RightFoot
[BasePosition]
Hips	0	0	0	0	0	0	1
Spine	0	0	0	0	0	0	1
Spine1	0	0	0	0	0	0	1
Spine2	0	0	0	0	0	0	1
Neck	0	0	0	0	0	0	1
Head	0	0	0	0	0	0	1
LeftEye	0	0	0	0	0	0	1
RightEye	0	0	0	0	0	0	1
LeftShoulder	0	0	0	0	0	0	1
LeftArm	0	0	0	0	0	0	1
LeftForeArm	0	0	0	0	0	0	1
LeftHand	0	0	0	0	0	0	1
LeftHandThumb1	0	0	0	0	0	0	1
LeftHandThumb2	0	0	0	0	0	0	1
LeftHandThumb3	0	0	0	0	0	0	1
LeftHandThumb4	0	0	0	0	0	0	1
LeftHandIndex1	0	0	0	0	0	0	1
LeftHandIndex2	0	0	0	0	0	0	1
LeftHandIndex3	0	0	0	0	0	0	1
LeftHandIndex4	0	0	0	0	0	0	1
LeftHandMiddle1	0	0	0	0	0	0	1
LeftHandMiddle2	0	0	0	0	0	0	1
LeftHandMiddle3	0	0	0	0	0	0	1
LeftHandMiddle4	0	0	0	0	0	0	1
LeftHandRing1	0	0	0	0	0	0	1
LeftHandRing2	0	0	0	0	0	0	1
LeftHandRing3	0	0	0	0	0	0	1
LeftHandRing4	0	0	0	0	0	0	1
LeftHandPinky1	0	0	0	0	0	0	1
LeftHandPinky2	0	0	0	0	0	0	1
LeftHandPinky3	0	0	0	0	0	0	1
LeftHandPinky4	0	0	0	0	0	0	1
RightShoulder	0	0	0	0	0	0	1
RightArm	0	0	0	0	0	0	1
RightForeArm	0	0	0	0	0	0	1
RightHand	0	0	0	0	0	0	1
RightHandPinky1	0	0	0	0	0	0	1
RightHandPinky2	0	0	0	0	0	0	1
RightHandPinky3	0	0	0	0	0	0	1
RightHandPinky4	0	0	0	0	0	0	1
RightHandRing1	0	0	0	0	0	0	1
RightHandRing2	0	0	0	0	0	0	1
RightHandRing3	0	0	0	0	0	0	1
RightHandRing4	0	0	0	0	0	0	1
RightHandMiddle1	0	0	0	0	0	0	1
RightHandMiddle2	0	0	0	0	0	0	1
RightHandMiddle3	0	0	0	0	0	0	1
RightHandMiddle4	0	0	0	0	0	0	1
RightHandIndex1	0	0	0	0	0	0	1
RightHandIndex2	0	0	0	0	0	0	1
RightHandIndex3	0	0	0	0	0	0	1
RightHandIndex4	0	0	0	0	0	0	1
RightHandThumb1	0	0	0	0	0	0	1
RightHandThumb2	0	0	0	0	0	0	1
RightHandThumb3	0	0	0	0	0	0	1
RightHandThumb4	0	0	0	0	0	0	1
LeftUpLeg	0	0	0	0	0	0	1
LeftLeg	0	0	0	0	0	0	1
LeftFoot	0	0	0	0	0	0	1
LeftToeBase	0	0	0	0	0	0	1
RightUpLeg	0	0	0	0	0	0	1
RightLeg	0	0	0	0	0	0	1
RightFoot	0	0	0	0	0	0	1
RightToeBase	0	0	0	0	0	0	1
[Hips]
29	40.95685959	1260.97876	-47.68432236	12.04864693	8.934877396	-1.444397926	1.0
30	42.46156311	1276.200684	-56.79092407	14.16748905	7.944192886	-2.72807622	1.0
31	43.27230453	1290.14917	-66.12789917	16.1052475	7.2870574	-3.465862989	1.0
32	44.41234207	1296.928711	-72.29035187	17.34662628	6.573797703	-3.840394258	1.0
[Spine]
29	0	101.8159943	1.315000057	13.13137531	-3.031464815	-3.667672157	1.0
30	0	101.8159943	1.315000057	14.32424259	-2.800296783	-2.457275152	1.0
31	0	101.8159943	1.315000057	14.49082947	-2.016442537	-1.557402492	1.0
32	0	101.8159943	1.315000057	13.9145174	-0.5675904751	-0.8089408875	1.0
[Spine1]
29	0	100.8349991	-10.00800037	4.263918877	0.1947361678	-0.8129119873	1.0
30	0	100.8349991	-10.00800037	4.867818832	0.3958418965	-0.689160347	1.0
31	0	100.8349991	-10.00800037	5.128644943	0.485411793	-0.494546175	1.0
32	0	100.8349991	-10.00800037	5.094272137	0.7473939061	-0.125705108	1.0
[Spine2]
29	0	91	-13.73399925	4.206729412	0.1733592451	-0.898876071	1.0
30	0	91	-13.73399925	4.803691864	0.3808177114	-0.8088461161	1.0
31	0	91	-13.73399925	5.068059444	0.4755111933	-0.6263388395	1.0
32	0	91	-13.73399925	5.04505682	0.7420378923	-0.2596157193	1.0
[Neck]
29	0	166.7169952	-25.16200066	19.17114639	0.1932842135	-2.55443716	1.0
30	0	166.7169952	-25.16200066	19.48256874	-0.01061276626	-2.504346132	1.0
31	0	166.7169952	-25.16200066	19.55628204	-0.2073855698	-2.585326195	1.0
32	0	166.7169952	-25.16200066	19.40721703	-0.4921677709	-3.036559343	1.0
[Head]
29	0	96.17900085	16.84999847	-20.78667831	-5.440197468	13.48142052	1.0
30	0	96.17900085	16.84999847	-26.57676315	-4.273613453	12.69127464	1.0
31	0	96.17900085	16.84999847	-30.91432953	-4.113753319	12.11595535	1.0
32	0	96.17900085	16.84999847	-33.28240204	-5.080496788	11.91343117	1.0
[LeftEye]
29	30.6760006	64.09500122	92.83599854	0	0	0	1.0
30	30.6760006	64.09500122	92.83599854	0	0	0	1.0
31	30.6760006	64.09500122	92.83599854	0	0	0	1.0
32	30.6760006	64.09500122	92.83599854	0	0	0	1.0
[RightEye]
29	-30.6760006	64.09500122	92.83499908	0	0	0	1.0
30	-30.6760006	64.09500122	92.83499908	0	0	0	1.0
31	-30.6760006	64.09500122	92.83499908	0	0	0	1.0
32	-30.6760006	64.09500122	92.83499908	0	0	0	1.0
[LeftShoulder]
29	45.70400238	109.4599991	-26.28000069	1.088807821	-16.03388023	18.0043354	1.0
30	45.70400238	109.4599991	-26.28000069	1.024680734	-10.0121088	22.30040169	1.0
31	45.70400238	109.4599991	-26.28000069	1.189376354	-7.07864809	24.05331802	1.0
32	45.70400238	109.4599991	-26.28000069	1.259032249	-6.259680748	24.11547852	1.0
[LeftArm]
29	105.923996	-5.24600029	-22.32099915	-11.6420517	-27.45594215	37.37546539	1.0
30	105.923996	-5.24600029	-22.32099915	-23.35219002	-23.53627968	37.20109558	1.0
31	105.923996	-5.24600029	-22.32099915	-29.97859192	-21.34565735	35.72780228	1.0
32	105.923996	-5.24600029	-22.32099915	-30.83943558	-21.17198944	34.21961594	1.0
[LeftForeArm]
29	278.414978	-0.0009999999311	0	-7.400092272e-06	-36.72048187	-0.0002168302599	1.0
30	278.414978	-0.0009999999311	0	5.651091669e-06	-41.31628799	-0.0002085652814	1.0
31	278.414978	-0.0009999999311	0	4.803759111e-06	-44.10094452	-0.0002045562433	1.0
32	278.414978	-0.0009999999311	0	-5.892111858e-06	-45.69049835	-0.0002152822854	1.0
[LeftHand]
29	283.2879944	0	0	-37.15358734	-9.0664711	-11.05939674	1.0
30	283.2879944	0	0	-35.85877609	-5.26942873	-2.288287163	1.0
31	283.2879944	0	0	-35.30887604	-1.028684497	8.698908806	1.0
32	283.2879944	0	0	-36.2700119	1.672004342	18.78534889	1.0
[LeftHandThumb1]
29	24.6609993	-15.75	26.8239994	-1.844216704	-1.366566658	3.678729057	1.0
30	24.6609993	-15.75	26.8239994	-2.265151024	-2.511728764	3.335869551	1.0
31	24.6609993	-15.75	26.8239994	-2.560037136	-3.325671434	3.099436283	1.0
32	24.6609993	-15.75	26.8239994	-2.6855793	-3.674610853	2.999526024	1.0
[LeftHandThumb2]
29	32.29800034	-18.64699936	18.64699936	0.1588894427	6.727367401	9.577651978	1.0
30	32.29800034	-18.64699936	18.64699936	-0.06606338918	3.521839857	8.964816093	1.0
31	32.29800034	-18.64699936	18.64699936	-0.2006594539	1.182243466	8.62267971	1.0
32	32.29800034	-18.64699936	18.64699936	-0.3214234114	0.05865497142	10.92293835	1.0
[LeftHandThumb3]
29	26.52600098	-15.31499958	15.31499958	-16.30306435	5.490517139	15.30423164	1.0
30	26.52600098	-15.31499958	15.31499958	-18.33549881	0.3657191992	14.48008919	1.0
31	26.52600098	-15.31499958	15.31499958	-19.80331421	-2.771658659	14.72369576	1.0
32	26.52600098	-15.31499958	15.31499958	-20.71035767	-5.326244831	14.00302792	1.0
[LeftHandThumb4]
29	19.54599953	-11.28499985	11.28499985	0	0	0	1.0
30	19.54599953	-11.28499985	11.28499985	0	0	0	1.0
31	19.54599953	-11.28499985	11.28499985	0	0	0	1.0
32	19.54599953	-11.28499985	11.28499985	0	0	0	1.0
[LeftHandIndex1]
29	91.09299469	-5.170999527	22.60099792	0.5479575396	-9.612949371	-3.805719137	1.0
30	91.09299469	-5.170999527	22.60099792	0.8860900402	-11.52589703	-4.357699871	1.0
31	91.09299469	-5.170999527	22.60099792	1.016113639	-13.51955509	-3.135596991	1.0
32	91.09299469	-5.170999527	22.60099792	0.7368010879	-15.38833427	-1.868309736	1.0
[LeftHandIndex2]
29	36.76399994	0	0	-0.2550134361	1.707427382	-16.98872757	1.0
30	36.76399994	0	0	-0.2558175325	1.710019112	-17.01533127	1.0
31	36.76399994	0	0	-0.2539228797	1.703828692	-16.95197868	1.0
32	36.76399994	0	0	-0.2521821856	1.698096037	-16.89329529	1.0
[LeftHandIndex3]
29	28.83100128	0	0	-0.05203768238	0.7781815529	-7.650898457	1.0
30	28.83100128	0	0	-0.05239029229	0.780821681	-7.676929951	1.0
31	28.83100128	0	0	-0.05153181776	0.7744165063	-7.613567352	1.0
32	28.83100128	0	0	-0.05077755079	0.7687743306	-7.557713509	1.0
[LeftHandIndex4]
29	23.92700005	0	0	0	0	0	1.0
30	23.92700005	0	0	0	0	0	1.0
31	23.92700005	0	0	0	0	0	1.0
32	23.92700005	0	0	0	0	0	1.0
[LeftHandMiddle1]
29	95.33399963	0	0	-0.2307455242	0.1433089525	-6.437349796	1.0
30	95.33399963	0	0	-0.2256743312	0.2406435758	-6.326359272	1.0
31	95.33399963	0	0	-0.1849888116	0.1754644513	-5.540193558	1.0
32	95.33399963	0	0	-0.2017858326	0.4851492345	-5.854771614	1.0
[LeftHandMiddle2]
29	36.98199844	0	0	-0.2681869566	1.749938846	-17.42535019	1.0
30	36.98199844	0	0	-0.2701658905	1.756207705	-17.4898243	1.0
31	36.98199844	0	0	-0.2701166272	1.756038666	-17.48810196	1.0
32	36.98199844	0	0	-0.2723733783	1.763209939	-17.56178856	1.0
[LeftHandMiddle3]
29	29.50900078	0	0	-0.3002999425	1.849080205	-18.44795609	1.0
30	29.50900078	0	0	-0.302315414	1.855088115	-18.51012039	1.0
31	29.50900078	0	0	-0.3022444546	1.854882121	-18.50786018	1.0
32	29.50900078	0	0	-0.3045723736	1.861810565	-18.57967949	1.0
[LeftHandMiddle4]
29	28.3390007	0	0	0	0	0	1.0
30	28.3390007	0	0	0	0	0	1.0
31	28.3390007	0	0	0	0	0	1.0
32	28.3390007	0	0	0	0	0	1.0
[LeftHandRing1]
29	91.04499817	-0.4390000105	-18.65100098	-0.5699417591	7.906287193	-12.47183514	1.0
30	91.04499817	-0.4390000105	-18.65100098	-0.5190754533	9.761950493	-11.90347672	1.0
31	91.04499817	-0.4390000105	-18.65100098	-0.4714328051	10.95260525	-11.36540318	1.0
32	91.04499817	-0.4390000105	-18.65100098	-0.5066230297	11.47331142	-12.03104973	1.0
[LeftHandRing2]
29	31.54000092	0	0	-0.418037653	2.170161247	-21.80434227	1.0
30	31.54000092	0	0	-0.4153636396	2.163452625	-21.73346901	1.0
31	31.54000092	0	0	-0.4093396962	2.148307562	-21.57362175	1.0
32	31.54000092	0	0	-0.4029927254	2.13220191	-21.40364647	1.0
[LeftHandRing3]
29	29.37700081	0	0	-0.3104293346	1.879156709	-18.75937271	1.0
30	29.37700081	0	0	-0.3082226813	1.872635126	-18.69178772	1.0
31	29.37700081	0	0	-0.3030826151	1.857373476	-18.53373528	1.0
32	29.37700081	0	0	-0.2975824177	1.840904236	-18.36347961	1.0
[LeftHandRing4]
29	26.47500038	0	0	0	0	0	1.0
30	26.47500038	0	0	0	0	0	1.0
31	26.47500038	0	0	0	0	0	1.0
32	26.47500038	0	0	0	0	0	1.0
[LeftHandPinky1]
29	80.77799988	-4.887000084	-38.06099701	-1.353888392	13.39396763	-17.89367867	1.0
30	80.77799988	-4.887000084	-38.06099701	-1.266849875	17.43181801	-17.53100586	1.0
31	80.77799988	-4.887000084	-38.06099701	-1.237588286	20.67780304	-18.45562172	1.0
32	80.77799988	-4.887000084	-38.06099701	-1.181264758	23.00830078	-19.87846184	1.0
[LeftHandPinky2]
29	36	0	0	-0.2976798117	1.841185451	-18.36631584	1.0
30	36	0	0	-0.2914005518	1.822187901	-18.17007256	1.0
31	36	0	0	-0.287487179	1.810194969	-18.0461216	1.0
32	36	0	0	-0.2820024788	1.793328762	-17.87222862	1.0
[LeftHandPinky3]
29	21.14200211	0	0	-0.2687914968	1.75181663	-17.44486809	1.0
30	21.14200211	0	0	-0.2628216445	1.732713938	-17.24841309	1.0
31	21.14200211	0	0	-0.259167999	1.720900178	-17.12702179	1.0
32	21.14200211	0	0	-0.2541692853	1.70461452	-16.96009636	1.0
[LeftHandPinky4]
29	19.75699997	0	0	0	0	0	1.0
30	19.75699997	0	0	0	0	0	1.0
31	19.75699997	0	0	0	0	0	1.0
32	19.75699997	0	0	0	0	0	1.0
[RightShoulder]
29	-45.70000076	109.4620056	-26.28000069	-1.629692554	11.81340408	-33.07105255	1.0
30	-45.70000076	109.4620056	-26.28000069	-2.619799852	14.8977356	-33.04948425	1.0
31	-45.70000076	109.4620056	-26.28000069	-2.701466084	15.27162266	-32.56089401	1.0
32	-45.70000076	109.4620056	-26.28000069	-2.263383627	14.16168404	-31.74728584	1.0
[RightArm]
29	-105.9280014	-5.248000145	-22.32099915	-11.23040485	-16.2205677	22.33308792	1.0
30	-105.9280014	-5.248000145	-22.32099915	-9.313174248	-22.86540222	22.31015015	1.0
31	-105.9280014	-5.248000145	-22.32099915	-12.31660652	-22.58037376	23.65965271	1.0
32	-105.9280014	-5.248000145	-22.32099915	-18.56425095	-19.27555084	23.87876511	1.0
[RightForeArm]
29	-278.414978	0	0	-4.913496923e-06	48.94223022	-7.426197953e-06	1.0
30	-278.414978	0	0	3.843322247e-06	42.03046417	-2.516956329e-06	1.0
31	-278.414978	0	0	-2.845021982e-06	38.0514183	6.572059647e-06	1.0
32	-278.414978	0	0	-4.162341725e-07	37.11367035	7.332128007e-07	1.0
[RightHand]
29	-283.2879944	0	0.0009999999311	-15.70175076	6.792890072	0.6862018108	1.0
30	-283.2879944	0	0.0009999999311	-13.77326012	3.991299868	-4.492817402	1.0
31	-283.2879944	0	0.0009999999311	-10.02278233	0.2077829987	-9.495024681	1.0
32	-283.2879944	0	0.0009999999311	-9.046498299	-2.23269558	-14.11729336	1.0
[RightHandPinky1]
29	-80.76699829	-4.885000229	-38.06000137	-0.6600828767	-19.30773544	16.80241013	1.0
30	-80.76699829	-4.885000229	-38.06000137	-0.7294153571	-20.86166763	18.27097511	1.0
31	-80.76699829	-4.885000229	-38.06000137	-0.8455127478	-21.90005112	20.21660423	1.0
32	-80.76699829	-4.885000229	-38.06000137	-0.889144063	-22.12158012	20.99190521	1.0
[RightHandPinky2]
29	-36	0	0.0009999999311	-0.2771570683	-1.57935667	19.92220688	1.0
30	-36	0	0.0009999999311	-0.2866106033	-1.605441928	20.26495361	1.0
31	-36	0	0.0009999999311	-0.2771807611	-1.579565763	19.92479134	1.0
32	-36	0	0.0009999999311	-0.2479214966	-1.49634707	18.83495903	1.0
[RightHandPinky3]
29	-21.14200211	0	0	-0.2555331588	-1.518332839	19.10268784	1.0
30	-21.14200211	0	0	-0.2638241053	-1.542271972	19.41576958	1.0
31	-21.14200211	0	0	-0.2542945147	-1.51488471	19.05743027	1.0
32	-21.14200211	0	0	-0.2263783813	-1.431581497	17.97203636	1.0
[RightHandPinky4]
29	-19.75699997	0	0	0	0	0	1.0
30	-19.75699997	0	0	0	0	0	1.0
31	-19.75699997	0	0	0	0	0	1.0
32	-19.75699997	0	0	0	0	0	1.0
[RightHandRing1]
29	-91.03599548	-0.4390000105	-18.65100098	-0.80260396	-7.271029949	16.79868126	1.0
30	-91.03599548	-0.4390000105	-18.65100098	-0.8055983782	-8.717961311	16.96601295	1.0
31	-91.03599548	-0.4390000105	-18.65100098	-0.8175310493	-9.645706177	17.24964714	1.0
32	-91.03599548	-0.4390000105	-18.65100098	-0.7819238901	-10.0614996	16.73060799	1.0
[RightHandRing2]
29	-31.54000092	0	0	-0.3744798601	-1.825932503	23.17852783	1.0
30	-31.54000092	0	0	-0.3683430552	-1.811567545	22.98560143	1.0
31	-31.54000092	0	0	-0.3569556773	-1.784447551	22.62213135	1.0
32	-31.54000092	0	0	-0.3308575153	-1.720767736	21.77184105	1.0
[RightHandRing3]
29	-29.37700081	0	0	-0.2832185626	-1.59611392	20.12272453	1.0
30	-29.37700081	0	0	-0.2779502571	-1.581681132	19.93289566	1.0
31	-29.37700081	0	0	-0.2680756748	-1.554167151	19.57176208	1.0
32	-29.37700081	0	0	-0.245436281	-1.489274383	18.72257233	1.0
[RightHandRing4]
29	-26.47500038	0	0	0	0	0	1.0
30	-26.47500038	0	0	0	0	0	1.0
31	-26.47500038	0	0	0	0	0	1.0
32	-26.47500038	0	0	0	0	0	1.0
[RightHandMiddle1]
29	-95.32500458	0	0	-0.7006595135	-0.5261549354	15.06076622	1.0
30	-95.32500458	0	0	-0.648108542	-1.067549586	14.14067078	1.0
31	-95.32500458	0	0	-0.6264706254	-1.312234402	13.76071262	1.0
32	-95.32500458	0	0	-0.6033033729	-1.297236323	13.36055851	1.0
[RightHandMiddle2]
29	-36.98199844	0	0	-0.2206693888	-1.414272189	17.74676132	1.0
30	-36.98199844	0	0	-0.2154418528	-1.397305489	17.52741814	1.0
31	-36.98199844	0	0	-0.1900627613	-1.31434679	16.45568085	1.0
32	-36.98199844	0	0	-0.149921	-1.169143677	14.59486771	1.0
[RightHandMiddle3]
29	-29.50900078	0	0	-0.2466161996	-1.494947433	18.77010155	1.0
30	-29.50900078	0	0	-0.2408941835	-1.477484465	18.54314995	1.0
31	-29.50900078	0	0	-0.2139880508	-1.394810557	17.4688797	1.0
32	-29.50900078	0	0	-0.1713145673	-1.250421643	15.60900784	1.0
[RightHandMiddle4]
29	-28.3390007	0	0.0009999999311	0	0	0	1.0
30	-28.3390007	0	0.0009999999311	0	0	0	1.0
31	-28.3390007	0	0.0009999999311	0	0	0	1.0
32	-28.3390007	0	0.0009999999311	0	0	0	1.0
[RightHandIndex1]
29	-91.08300018	-5.167999744	22.60099792	-0.4473702908	13.90967369	13.87548637	1.0
30	-91.08300018	-5.167999744	22.60099792	-0.3163182139	15.97657108	12.44824219	1.0
31	-91.08300018	-5.167999744	22.60099792	-0.1653595567	17.84736252	10.72824001	1.0
32	-91.08300018	-5.167999744	22.60099792	-0.06360398233	18.69309998	9.781996727	1.0
[RightHandIndex2]
29	-36.76399994	0	0	-0.2016122192	-1.352842331	16.9524498	1.0
30	-36.76399994	0	0	-0.2045335472	-1.362452507	17.07637596	1.0
31	-36.76399994	0	0	-0.1987692416	-1.34347713	16.83150291	1.0
32	-36.76399994	0	0	-0.177351892	-1.270695329	15.89433098	1.0
[RightHandIndex3]
29	-28.83100128	0	0	-0.04190253094	-0.6223365664	7.707201481	1.0
30	-28.83100128	0	0	-0.04271371663	-0.6283028722	7.781549931	1.0
31	-28.83100128	0	0	-0.0401249975	-0.6089698672	7.540556431	1.0
32	-28.83100128	0	0	-0.030726403	-0.5334123969	6.600558758	1.0
[RightHandIndex4]
29	-23.92700005	0	0	0	0	0	1.0
30	-23.92700005	0	0	0	0	0	1.0
31	-23.92700005	0	0	0	0	0	1.0
32	-23.92700005	0	0	0	0	0	1.0
[RightHandThumb1]
29	-24.64799881	-15.72700024	26.82600021	-3.896879911	6.135451317	-2.328353167	1.0
30	-24.64799881	-15.72700024	26.82600021	-4.38741827	7.519504547	-1.968664885	1.0
31	-24.64799881	-15.72700024	26.82600021	-4.762661457	8.570723534	-1.70744884	1.0
32	-24.64799881	-15.72700024	26.82600021	-4.961005211	9.122273445	-1.574200511	1.0
[RightHandThumb2]
29	-32.29800034	-18.64699936	18.64699936	15.91780376	0.1306632757	-26.24596977	1.0
30	-32.29800034	-18.64699936	18.64699936	15.61485481	0.8561309576	-22.59649086	1.0
31	-32.29800034	-18.64699936	18.64699936	15.36394119	1.622572184	-20.17997932	1.0
32	-32.29800034	-18.64699936	18.64699936	15.24626255	2.458646774	-19.76740646	1.0
[RightHandThumb3]
29	-26.52600098	-15.31399918	15.31399918	-15.04604244	-6.729836464	-17.98250961	1.0
30	-26.52600098	-15.31399918	15.31399918	-14.7317543	-7.206549644	-16.62073326	1.0
31	-26.52600098	-15.31399918	15.31399918	-14.85531235	-6.79689312	-16.17935944	1.0
32	-26.52600098	-15.31399918	15.31399918	-14.95627975	-6.617052555	-16.5158577	1.0
[RightHandThumb4]
29	-19.54599953	-11.28499985	11.28499985	0	0	0	1.0
30	-19.54599953	-11.28499985	11.28499985	0	0	0	1.0
31	-19.54599953	-11.28499985	11.28499985	0	0	0	1.0
32	-19.54599953	-11.28499985	11.28499985	0	0	0	1.0
[LeftUpLeg]
29	82.07800293	-67.51699829	-15.99599934	-122.4850769	-3.943151474	-5.017450333	1.0
30	82.07800293	-67.51699829	-15.99599934	-127.8656921	-3.648416758	-9.288048744	1.0
31	82.07800293	-67.51699829	-15.99599934	-125.3326263	0.3328038156	-11.88678265	1.0
32	82.07800293	-67.51699829	-15.99599934	-117.2897415	7.513279915	-11.63280678	1.0
[LeftLeg]
29	0	-443.7049866	2.845999956	135.6473083	-8.071791649	3.631899357	1.0
30	0	-443.7049866	2.845999956	137.9700623	-9.116082191	2.466300011	1.0
31	0	-443.7049866	2.845999956	134.9655151	-8.507537842	2.159839392	1.0
32	0	-443.7049866	2.845999956	127.3994904	-4.725635052	0.3706324697	1.0
[LeftFoot]
29	0	-444.2789917	-29.8219986	-13.0196228	1.983202696	7.401508331	1.0
30	0	-444.2789917	-29.8219986	-16.30197716	3.619681835	7.494299412	1.0
31	0	-444.2789917	-29.8219986	-18.27792549	1.354549408	6.38715601	1.0
32	0	-444.2789917	-29.8219986	-15.87432766	0.9192804098	5.142060757	1.0
[LeftToeBase]
29	0	-87.28699493	107.1060028	-6.723488808	6.111012681e-06	7.333908059e-08	1.0
30	0	-87.28699493	107.1060028	-6.519853115	9.849661637e-07	2.207270427e-06	1.0
31	0	-87.28699493	107.1060028	-6.22601223	-2.706886789e-06	-1.138041171e-06	1.0
32	0	-87.28699493	107.1060028	-6.446249962	-6.101631698e-06	-1.479919433e-06	1.0
[RightUpLeg]
29	-82.07800293	-67.51699829	-15.99599934	-54.5354805	-15.25216484	-4.342209339	1.0
30	-82.07800293	-67.51699829	-15.99599934	-68.91057587	-14.78574276	-2.784183979	1.0
31	-82.07800293	-67.51699829	-15.99599934	-83.42552185	-14.03565693	-2.022240639	1.0
32	-82.07800293	-67.51699829	-15.99599934	-97.50037384	-13.76401806	-2.105704784	1.0
[RightLeg]
29	0	-443.7049866	2.861999989	62.02787781	-6.421880722	-0.6878026128	1.0
30	0	-443.7049866	2.861999989	77.15079498	-4.993326664	-0.09264404327	1.0
31	0	-443.7049866	2.861999989	91.01476288	-3.761841297	0.1277579665	1.0
32	0	-443.7049866	2.861999989	103.6902618	-2.90615201	-0.1657660455	1.0
[RightFoot]
29	0	-444.2770081	-29.83799934	13.50689602	-0.5459144711	9.507308006	1.0
30	0	-444.2770081	-29.83799934	7.009176731	-0.4495918453	12.86118889	1.0
31	0	-444.2770081	-29.83799934	1.39409411	-0.08202757686	14.07492828	1.0
32	0	-444.2770081	-29.83799934	-3.058197737	0.01651290618	11.60203648	1.0
[RightToeBase]
29	0	-87.28699493	107.1060028	-3.496938944	2.864114094e-06	7.191308669e-07	1.0
30	0	-87.28699493	107.1060028	-5.004884243	3.9216593e-06	-7.534350743e-07	1.0
31	0	-87.28699493	107.1060028	-6.304574966	-5.317891919e-06	3.376361519e-07	1.0
32	0	-87.28699493	107.1060028	-7.100577831	-6.627152743e-06	8.732843071e-07	1.0
[EndOfFile]
